<svg xmlns="http://www.w3.org/2000/svg" xmlns:xlink="http://www.w3.org/1999/xlink" width="3840" zoomAndPan="magnify" viewBox="0 0 2880 1619.99993" height="2160" preserveAspectRatio="xMidYMid meet" version="1.0"><defs><clipPath id="id1"><path d="M 440.070312 42.796875 L 2444.558594 42.796875 L 2444.558594 1571.296875 L 440.070312 1571.296875 Z M 440.070312 42.796875 " clip-rule="nonzero"/></clipPath></defs><path fill="#4bbf73" d="M 1087.636719 904.636719 L 1053.136719 961.503906 C 1047.15625 971.363281 1052.847656 985.4375 1062.820312 985.4375 L 1442.3125 985.4375 L 1442.3125 891.140625 L 1109.472656 891.140625 C 1100.882812 891.140625 1092.792969 896.140625 1087.636719 904.636719 " fill-opacity="1" fill-rule="nonzero"/><path fill="#4bbf73" d="M 971.605469 1131.246094 L 971.605469 1178.65625 C 971.605469 1197.160156 986.609375 1212.160156 1005.113281 1212.160156 L 1442.3125 1212.160156 L 1442.3125 1097.738281 L 1005.113281 1097.738281 C 986.609375 1097.738281 971.605469 1112.738281 971.605469 1131.246094 " fill-opacity="1" fill-rule="nonzero"/><path fill="#4bbf73" d="M 955.800781 871.191406 C 850.210938 832.058594 744.621094 792.925781 639.023438 753.792969 C 629.46875 750.25 618.742188 753.628906 612.933594 762 C 605.992188 772.011719 598.554688 785.816406 594.332031 803.3125 C 590.730469 818.222656 590.503906 831.484375 591.292969 841.628906 C 591.691406 846.832031 593.949219 851.699219 597.601562 855.425781 C 629.515625 887.953125 661.425781 920.480469 693.339844 953.011719 C 699.136719 958.917969 707.039062 962.28125 715.308594 962.359375 C 780.042969 962.988281 844.773438 963.617188 909.507812 964.246094 C 916.507812 964.316406 923.136719 961.089844 927.402344 955.542969 L 965.734375 905.710938 C 974.894531 893.796875 969.894531 876.417969 955.800781 871.191406 " fill-opacity="1" fill-rule="nonzero"/><g clip-path="url(#id1)"><path fill="#1a1a1a" d="M 2345.125 1055.941406 C 2317.664062 1055.941406 2295.417969 1033.683594 2295.417969 1006.214844 C 2295.417969 978.757812 2317.664062 956.496094 2345.125 956.496094 C 2372.585938 956.496094 2394.847656 978.757812 2394.847656 1006.214844 C 2394.847656 1033.683594 2372.585938 1055.941406 2345.125 1055.941406 Z M 1383.878906 998.585938 L 1031.648438 998.585938 C 1021.683594 998.585938 1015.988281 984.511719 1021.976562 974.652344 L 1056.476562 917.789062 C 1061.628906 909.292969 1069.710938 904.289062 1078.300781 904.289062 L 1383.878906 904.289062 Z M 1383.878906 1225.3125 L 973.949219 1225.3125 C 955.445312 1225.3125 940.441406 1210.308594 940.441406 1191.800781 L 940.441406 1144.394531 C 940.441406 1125.886719 955.445312 1110.886719 973.949219 1110.886719 L 1383.878906 1110.886719 Z M 934.5625 918.859375 L 896.234375 968.691406 C 891.96875 974.234375 885.34375 977.457031 878.34375 977.390625 C 813.609375 976.765625 748.878906 976.132812 684.144531 975.507812 C 675.867188 975.433594 667.96875 972.0625 662.171875 966.15625 C 630.261719 933.636719 598.34375 901.101562 566.433594 868.574219 C 562.78125 864.847656 560.527344 859.976562 560.128906 854.773438 C 559.335938 844.636719 559.558594 831.367188 563.164062 816.464844 C 567.390625 798.960938 574.824219 785.15625 581.769531 775.144531 C 587.574219 766.777344 598.308594 763.394531 607.859375 766.941406 C 713.453125 806.070312 819.042969 845.210938 924.632812 884.339844 C 938.730469 889.570312 943.726562 906.945312 934.5625 918.859375 Z M 2134.480469 1422.167969 C 2161.941406 1422.167969 2184.199219 1444.4375 2184.199219 1471.894531 C 2184.199219 1499.355469 2161.941406 1521.613281 2134.480469 1521.613281 C 2107.023438 1521.613281 2084.765625 1499.355469 2084.765625 1471.894531 C 2084.765625 1444.4375 2107.023438 1422.167969 2134.480469 1422.167969 Z M 1867.589844 92.511719 C 1895.046875 92.511719 1917.308594 114.773438 1917.308594 142.234375 C 1917.308594 169.695312 1895.046875 191.957031 1867.589844 191.957031 C 1840.144531 191.957031 1817.871094 169.695312 1817.871094 142.234375 C 1817.871094 114.773438 1840.144531 92.511719 1867.589844 92.511719 Z M 2111.925781 446.59375 C 2139.386719 446.59375 2161.660156 468.855469 2161.660156 496.316406 C 2161.660156 523.777344 2139.386719 546.039062 2111.925781 546.039062 C 2084.480469 546.039062 2062.222656 523.777344 2062.222656 496.316406 C 2062.222656 468.855469 2084.480469 446.59375 2111.925781 446.59375 Z M 1816.421875 797.914062 C 1843.878906 797.914062 1866.136719 820.171875 1866.136719 847.632812 C 1866.136719 875.09375 1843.878906 897.355469 1816.421875 897.355469 C 1788.957031 897.355469 1766.703125 875.09375 1766.703125 847.632812 C 1766.703125 820.171875 1788.957031 797.914062 1816.421875 797.914062 Z M 2415.445312 935.902344 C 2396.664062 917.117188 2371.6875 906.777344 2345.125 906.777344 C 2318.5625 906.777344 2293.601562 917.117188 2274.808594 935.902344 C 2261.316406 949.398438 2252.183594 966.101562 2248.109375 984.289062 L 2039.066406 984.289062 C 2030.53125 984.289062 2022.363281 987.675781 2016.339844 993.71875 L 1864.96875 1145.4375 C 1858.945312 1151.476562 1850.765625 1154.867188 1842.230469 1154.867188 L 1771.125 1154.867188 C 1764.867188 1154.867188 1758.746094 1153.03125 1753.507812 1149.597656 L 1599.34375 1048.371094 C 1594.125 1044.941406 1588.007812 1043.101562 1581.761719 1043.101562 L 1416.019531 1042.855469 L 1416.019531 884.503906 L 1724.015625 884.503906 C 1728.957031 896.878906 1736.414062 908.242188 1746.101562 917.949219 C 1764.878906 936.734375 1789.855469 947.074219 1816.421875 947.074219 C 1842.980469 947.074219 1867.949219 936.734375 1886.734375 917.949219 C 1905.515625 899.167969 1915.855469 874.195312 1915.855469 847.632812 C 1915.855469 821.070312 1905.515625 796.101562 1886.734375 777.316406 C 1867.949219 758.535156 1842.980469 748.191406 1816.421875 748.191406 C 1789.855469 748.191406 1764.878906 758.535156 1746.101562 777.316406 C 1733.976562 789.449219 1725.382812 804.160156 1720.804688 820.214844 L 1416.019531 820.214844 L 1416.019531 701.496094 L 1612.769531 701.496094 L 1612.769531 701.117188 L 1773.550781 540.324219 C 1779.578125 534.300781 1787.742188 530.917969 1796.261719 530.917969 L 2018.664062 530.917969 C 2023.570312 544.179688 2031.332031 556.335938 2041.625 566.632812 C 2060.414062 585.417969 2085.367188 595.757812 2111.925781 595.757812 C 2138.492188 595.757812 2163.46875 585.417969 2182.246094 566.632812 C 2201.023438 547.851562 2211.367188 522.878906 2211.367188 496.316406 C 2211.367188 469.753906 2201.023438 444.78125 2182.246094 426 C 2163.46875 407.21875 2138.492188 396.875 2111.925781 396.875 C 2085.367188 396.875 2060.414062 407.21875 2041.625 426 C 2030.066406 437.554688 2021.714844 451.457031 2016.992188 466.628906 L 1769.269531 466.628906 C 1760.734375 466.628906 1752.558594 470.023438 1746.53125 476.0625 L 1595.167969 627.777344 C 1589.148438 633.820312 1580.96875 637.207031 1572.433594 637.207031 L 1416.019531 637.207031 L 1416.019531 637.089844 L 1411.148438 637.089844 L 1411.148438 636.90625 C 1258.246094 636.710938 1105.355469 630.472656 952.832031 618.171875 C 896.449219 613.621094 840.386719 605.738281 784.925781 594.632812 L 725.453125 582.542969 L 846.027344 303.589844 C 846.628906 302.273438 847.242188 300.957031 847.84375 299.664062 C 855.441406 283.382812 869.933594 254.445312 875.429688 242.699219 C 880.28125 232.417969 889.863281 225.210938 901.113281 223.402344 C 1019.578125 204.367188 1178.675781 188.316406 1314.875 182.214844 L 1776.503906 182.214844 C 1781.394531 193.398438 1788.390625 203.664062 1797.285156 212.554688 C 1816.0625 231.335938 1841.035156 241.679688 1867.589844 241.679688 C 1894.152344 241.679688 1919.117188 231.335938 1937.894531 212.554688 C 1956.683594 193.761719 1967.023438 168.796875 1967.023438 142.234375 C 1967.023438 115.671875 1956.683594 90.707031 1937.894531 71.925781 C 1919.117188 53.132812 1894.152344 42.789062 1867.589844 42.789062 C 1841.035156 42.789062 1816.0625 53.132812 1797.285156 71.925781 C 1784.371094 84.828125 1775.445312 100.667969 1771.125 117.933594 L 1443.332031 117.933594 C 1437.671875 117.933594 1432.089844 117.933594 1426.441406 117.957031 C 1421.339844 117.96875 1416.253906 117.996094 1411.164062 118.019531 L 1411.148438 117.96875 C 1405.90625 117.945312 1400.660156 117.933594 1395.398438 117.933594 C 1391.390625 117.933594 1387.433594 117.933594 1383.429688 117.957031 C 1347.789062 118.09375 1312.871094 118.804688 1278.6875 120.0625 C 1152.835938 124.644531 1037.054688 136.320312 932.945312 151.53125 C 918.917969 153.574219 905.128906 155.691406 891.519531 157.867188 C 890.4375 158.050781 889.339844 158.210938 888.257812 158.378906 C 862.046875 162.601562 839.632812 179.449219 828.335938 203.453125 C 798.933594 266.128906 738.84375 396.300781 681.847656 513.140625 C 676.871094 506.417969 671.863281 499.699219 666.886719 492.988281 C 658.089844 481.140625 653.667969 466.628906 654.34375 451.902344 C 655.042969 436.664062 655.761719 421.429688 656.460938 406.167969 C 657.058594 393.601562 647.476562 382.886719 634.9375 382.042969 C 586.773438 378.796875 538.589844 375.554688 490.4375 372.289062 C 477.445312 371.421875 465.21875 378.527344 459.539062 390.210938 C 453.628906 402.398438 447.71875 414.566406 441.804688 426.75 C 437.167969 436.308594 442.210938 447.742188 452.402344 450.78125 C 498.636719 464.417969 544.863281 478.09375 591.121094 491.757812 C 609.234375 497.101562 624.535156 509.363281 633.714844 525.871094 C 639.535156 536.363281 645.339844 546.851562 651.164062 557.3125 C 632.667969 573.230469 609.738281 584.285156 599.019531 588.191406 C 591.859375 590.824219 584.789062 593.636719 577.960938 597.066406 C 499.140625 636.816406 444.777344 718.101562 443.929688 812.160156 C 443.878906 814.214844 450.308594 885.820312 450.726562 887.894531 C 452.402344 902.40625 487.066406 1149.898438 495.453125 1365.691406 C 497 1405.335938 497.660156 1443.910156 497.070312 1479.773438 C 498.605469 1485.863281 501.152344 1491.5625 504.523438 1496.6875 C 514.628906 1512.222656 532.152344 1522.5 552.023438 1522.5 L 869.742188 1522.5 C 901.015625 1522.5 926.488281 1497.042969 926.488281 1465.75 L 926.488281 1422.441406 C 926.488281 1391.144531 901.015625 1365.691406 869.742188 1365.691406 L 671.675781 1365.691406 C 664.644531 1365.691406 659.113281 1359.683594 659.6875 1352.667969 C 659.707031 1352.582031 659.707031 1352.496094 659.707031 1352.40625 C 660.230469 1346.183594 665.464844 1341.386719 671.738281 1341.40625 C 918.207031 1342.117188 1164.679688 1342.832031 1411.148438 1343.535156 L 1411.148438 1343.289062 L 1623.101562 1343.289062 C 1631.625 1343.289062 1639.785156 1346.667969 1645.816406 1352.699219 L 1797.199219 1504.097656 C 1803.210938 1510.105469 1811.363281 1513.496094 1819.875 1513.507812 L 2042.285156 1513.828125 C 2042.941406 1513.828125 2043.589844 1513.800781 2044.242188 1513.757812 C 2049.089844 1524.199219 2055.789062 1533.828125 2064.167969 1542.210938 C 2082.953125 1560.992188 2107.921875 1571.335938 2134.480469 1571.335938 C 2161.042969 1571.335938 2186.023438 1560.992188 2204.796875 1542.210938 C 2223.578125 1523.421875 2233.917969 1498.457031 2233.917969 1471.894531 C 2233.917969 1445.332031 2223.578125 1420.355469 2204.796875 1401.578125 C 2186.023438 1382.796875 2161.042969 1372.453125 2134.480469 1372.453125 C 2107.921875 1372.453125 2082.953125 1382.796875 2064.167969 1401.578125 C 2050.757812 1414.980469 2041.671875 1431.539062 2037.550781 1449.578125 L 1846.929688 1449.578125 C 1838.398438 1449.578125 1830.214844 1446.191406 1824.191406 1440.148438 L 1672.820312 1288.425781 C 1666.804688 1282.390625 1658.621094 1279.003906 1650.089844 1279.003906 L 1416.019531 1279.003906 L 1416.019531 1107.019531 L 1554.726562 1107.019531 C 1560.988281 1107.019531 1567.117188 1108.847656 1572.355469 1112.289062 L 1726.523438 1213.523438 C 1731.738281 1216.953125 1737.839844 1218.78125 1744.074219 1218.792969 L 1868.832031 1219.117188 C 1877.378906 1219.144531 1885.582031 1215.753906 1891.621094 1209.714844 L 1946.464844 1154.867188 L 2043.34375 1057.984375 C 2049.359375 1051.953125 2057.535156 1048.574219 2066.058594 1048.574219 L 2255.109375 1048.574219 C 2259.941406 1058.832031 2266.566406 1068.28125 2274.808594 1076.53125 C 2293.601562 1095.320312 2318.5625 1105.65625 2345.125 1105.65625 C 2371.6875 1105.65625 2396.664062 1095.320312 2415.445312 1076.53125 C 2434.222656 1057.753906 2444.5625 1032.777344 2444.5625 1006.214844 C 2444.5625 979.652344 2434.222656 954.679688 2415.445312 935.902344 " fill-opacity="1" fill-rule="nonzero"/></g></svg>